<svg id="Layer_1" data-name="Layer 1" xmlns="http://www.w3.org/2000/svg" viewBox="0 0 245 355"><defs><style>.cls-1,.cls-3,.cls-4{fill:none;}.cls-1{stroke:#95ffde;}.cls-2{fill:#106580;}.cls-3{stroke:#5cbebe;stroke-width:2px;}.cls-5{fill:#487b89;}</style></defs><title>countdown_no_text</title><g id="Group_60" data-name="Group 60"><path id="Path_13" data-name="Path 13" class="cls-1" d="M245,64.6H195.9" transform="translate(0)"/><path id="Path_13-2" data-name="Path 13-2" class="cls-1" d="M245,88.4H195.9" transform="translate(0)"/><path id="Path_13-3" data-name="Path 13-3" class="cls-1" d="M245,112.2H195.9" transform="translate(0)"/><path id="Path_13-4" data-name="Path 13-4" class="cls-1" d="M245,136H195.9" transform="translate(0)"/><path id="Path_13-5" data-name="Path 13-5" class="cls-1" d="M245,159.8H195.9" transform="translate(0)"/><path id="Path_13-6" data-name="Path 13-6" class="cls-1" d="M245,183.6H195.9" transform="translate(0)"/><path id="Path_13-7" data-name="Path 13-7" class="cls-1" d="M245,207.4H195.9" transform="translate(0)"/><path id="Path_13-8" data-name="Path 13-8" class="cls-1" d="M245,231.2H195.9" transform="translate(0)"/><path id="Path_13-9" data-name="Path 13-9" class="cls-1" d="M245,254.9H195.9" transform="translate(0)"/><path id="Path_14" data-name="Path 14" class="cls-1" d="M245,302.5H195.9" transform="translate(0)"/><path id="Path_13-10" data-name="Path 13-10" class="cls-1" d="M245,278.7H195.9" transform="translate(0)"/></g><g id="Rectangle_38" data-name="Rectangle 38"><rect class="cls-2" x="48.1" y="10.3" width="148.3" height="344.66" rx="15" ry="15"/><rect class="cls-3" x="49.1" y="11.3" width="146.3" height="342.66" rx="14" ry="14"/></g><g id="Rectangle_39" data-name="Rectangle 39"><rect class="cls-4" x="80.3" y="43.4" width="82.7" height="279.5" rx="15" ry="15"/><rect class="cls-3" x="81.3" y="44.4" width="80.7" height="277.5" rx="14" ry="14"/></g><line id="Line_3" data-name="Line 3" class="cls-3" x1="122.2" y1="10.9" x2="122.2" y2="44"/><g id="Ellipse_2" data-name="Ellipse 2"><circle class="cls-5" cx="122.7" cy="10.3" r="10.3"/><circle class="cls-3" cx="122.7" cy="10.3" r="9.3"/></g><g id="Group_59" data-name="Group 59"><path id="Path_13-11" data-name="Path 13-11" class="cls-1" d="M49.1,64.6H0" transform="translate(0)"/><path id="Path_13-12" data-name="Path 13-12" class="cls-1" d="M49.1,88.4H0" transform="translate(0)"/><path id="Path_13-13" data-name="Path 13-13" class="cls-1" d="M49.1,112.2H0" transform="translate(0)"/><path id="Path_13-14" data-name="Path 13-14" class="cls-1" d="M49.1,136H0" transform="translate(0)"/><path id="Path_13-15" data-name="Path 13-15" class="cls-1" d="M49.1,159.8H0" transform="translate(0)"/><path id="Path_13-16" data-name="Path 13-16" class="cls-1" d="M49.1,183.6H0" transform="translate(0)"/><path id="Path_13-17" data-name="Path 13-17" class="cls-1" d="M49.1,207.4H0" transform="translate(0)"/><path id="Path_13-18" data-name="Path 13-18" class="cls-1" d="M49.1,231.2H0" transform="translate(0)"/><path id="Path_13-19" data-name="Path 13-19" class="cls-1" d="M49.1,254.9H0" transform="translate(0)"/><path id="Path_14-2" data-name="Path 14-2" class="cls-1" d="M49.1,302.5H0" transform="translate(0)"/><path id="Path_13-20" data-name="Path 13-20" class="cls-1" d="M49.1,278.7H0" transform="translate(0)"/></g></svg>